<svg id="Layer_1" data-name="Layer 1" xmlns="http://www.w3.org/2000/svg" viewBox="0 0 400 400"><defs><style>.cls-1,.cls-14{fill:none;stroke:#fff;stroke-miterlimit:10;}.cls-2{fill:#f38420;}.cls-3{fill:#763e1a;}.cls-4{fill:#e37725;}.cls-5{fill:#e27626;}.cls-6{fill:#beab9d;}.cls-7{fill:#d4beaf;}.cls-8{fill:#e37625;}.cls-9{fill:#cc6328;}.cls-10{fill:#181817;}.cls-11{fill:#cd6328;}.cls-12{fill:#e37525;}.cls-13{fill:#08080a;}.cls-14{stroke-width:9px;}.cls-15{fill:#bfbfbf;}</style></defs><ellipse class="cls-1" cx="200.14" cy="200.23" rx="104.93" ry="104.54"/><ellipse class="cls-1" cx="200.14" cy="200.23" rx="35.38" ry="35.37"/><path class="cls-2" d="M195.21,187.21H205a2.63,2.63,0,0,1-.24,1.1c-.57,1.54-1.1,3.1-1.64,4.65l-.18.61c-.2,2.71-.46,5.42-.43,8.15-.13,1.23.38,2.38.49,3.59,0,.15,0,.77.54.34a18.3,18.3,0,0,0,3.34-.82h.2c.49.78,0,1.67.33,2.66.56-1.13,1.07-2.13,1.56-3.14.35-.73,1-1.32,1-2.22,0-.29.65-.44.22-.84-.06-.89-.82-1.39-1.15-2.13-.18-.39-.78-.63-.49-1.21l7.47,2.14c.73,2.29,1.48,4.58,2.2,6.87a2.36,2.36,0,0,1,.27,1.19H208c-.35,0-.79-.15-.9.4a15.37,15.37,0,0,0-4,2.93l-.18,0a1.6,1.6,0,0,0-1.09-.46c-1.17,0-2.34,0-3.5,0a1.17,1.17,0,0,0-1.08.43h-.16a15.26,15.26,0,0,0-3.94-2.93c-.11-.55-.56-.39-.91-.4H181.73a59.23,59.23,0,0,1,1.7-5.7c.22-.8.49-1.58.74-2.36l7.48-2.14c.3.41-.13.59-.27.86-.41.85-1.23,1.47-1.37,2.48-.43.41.19.55.22.84.47,1.93,1.83,3.41,2.56,5.45.32-1.08-.14-2,.35-2.75h.55a10.49,10.49,0,0,0,2.75.81c.41.13.78.11.81-.41.07-1.19.59-2.32.46-3.53,0-2.72-.26-5.43-.44-8.15l-.18-.59a2.27,2.27,0,0,0-.24-.88A33.71,33.71,0,0,1,195.21,187.21Z"/><path class="cls-3" d="M191.65,198l-7.48,2.14c-.37-.41-.76-.81-1.1-1.24s-.86-.6-.11-1.11c.32-.21-.18-.39-.29-.59s-.73-.47-.46-.67c1.22-.88-.2-1-.37-1.58.63-.34.71-.82.53-1.53a21.87,21.87,0,0,1-.88-4.56c-.07-2,1.06-3.81,1.6-5.72.11-.35.32-.34.53-.15a2.92,2.92,0,0,0,1,.53.63.63,0,0,0,.29.51l12.2,9,.18.59c-.42.12-.66.49-1,.73C194.72,195.48,193.43,197,191.65,198Z"/><path class="cls-3" d="M202.92,193.57l.18-.61c3.07-2.26,6.16-4.51,9.21-6.8a21,21,0,0,0,3.68-2.95h0a.41.41,0,0,0,.47-.21c.53-.29.67.13.78.47.5,1.47,1,2.93,1.46,4.41a5.82,5.82,0,0,1-.29,2.74c-.16,1-.39,2-.6,2.92-.1.41-.26.8.21,1.1a.32.32,0,0,1,.06.53c-.62.43-.82.78-.08,1.33.22.16-.26.39-.42.59s-.78.47-.09.87c.36.21,0,.43-.11.58-.44.53-.91,1-1.36,1.54L208.54,198a5.41,5.41,0,0,1-1.12-.68C205.94,196,204.42,194.8,202.92,193.57Z"/><path class="cls-4" d="M211.62,208.16h6.86c-.69,2.45-1.37,4.9-2.08,7.34-.19.62-.72.67-1.27.52l-7.26-2a1.09,1.09,0,0,0-.05-.17A36.59,36.59,0,0,0,211.62,208.16Z"/><path class="cls-4" d="M181.73,208.15h6.84a37.31,37.31,0,0,0,3.8,5.66c0,.06,0,.12-.05.17l-7.16,2c-.76.22-1.22.07-1.45-.78C183.08,212.84,182.24,210.54,181.73,208.15Z"/><path class="cls-5" d="M216,183.21a21,21,0,0,1-3.68,2.95c-3.05,2.29-6.14,4.54-9.21,6.8.54-1.55,1.07-3.11,1.64-4.65a2.63,2.63,0,0,0,.24-1.1l10-3.74C215.33,183.36,215.62,183.14,216,183.21Z"/><path class="cls-5" d="M197.09,193l-12.2-9a.63.63,0,0,1-.29-.51.94.94,0,0,1,.4,0c2.73,1.07,5.55,1.9,8.21,3.16.6.29,1.34.37,2,.62a33.71,33.71,0,0,0,1.64,4.88A2.27,2.27,0,0,1,197.09,193Z"/><path class="cls-6" d="M207.49,214.19a30.61,30.61,0,0,1-4.32,3.18,1.3,1.3,0,0,1-.8.16,11.54,11.54,0,0,0-1.86,0c-3.35.6-5.57-1.38-7.81-3.35,1.12.07,1.93.86,2.93,1.22,1.24.44,1.23.46,1.26-.84a48.92,48.92,0,0,1,5.55-.14c.36,0,.56.25.85.33,0,.78,0,1.16,1,.75S206.29,214.26,207.49,214.19Z"/><path class="cls-7" d="M196.89,214.57c0,1.3,0,1.28-1.26.84-1-.36-1.81-1.15-2.93-1.22h0l-.31-.21h-.09c0-.05,0-.11.05-.17a.22.22,0,0,0,.14-.09l4.58-2.24h.16l-.13,1.65a.19.19,0,0,0,0,.19l-.08.6C196.78,214.11,196.9,214.35,196.89,214.57Z"/><path class="cls-7" d="M207.49,214.19c-1.2.07-2.11.88-3.17,1.32s-1.08,0-1-.75l-.14-.6-.06-.82a.21.21,0,0,0,0-.19l-.15-1.63.18,0,4.58,2.24a.22.22,0,0,0,.14.09,1.09,1.09,0,0,1,.05.17l-.05,0,0,0-.3.21Z"/><path class="cls-5" d="M216.45,183a.41.41,0,0,1-.47.21C216.07,183,216.26,183,216.45,183Z"/><path class="cls-6" d="M192.41,214l.31.21Z"/><path class="cls-6" d="M207.47,214.19l.3-.21Z"/><path class="cls-8" d="M191.65,198c1.78-.93,3.07-2.47,4.64-3.66.32-.24.56-.61,1-.73.18,2.72.48,5.43.44,8.15l-7.7-.42c.14-1,1-1.63,1.37-2.48C191.52,198.54,192,198.36,191.65,198Z"/><path class="cls-8" d="M202.92,193.57c1.5,1.23,3,2.45,4.5,3.7a5.41,5.41,0,0,0,1.12.68c-.29.58.31.82.49,1.21.33.74,1.09,1.24,1.15,2.13l-7.69.43C202.46,199,202.72,196.28,202.92,193.57Z"/><path class="cls-9" d="M190,201.29l7.7.42c.13,1.21-.39,2.34-.46,3.53,0,.52-.4.54-.81.41.18-.69-.42-2.14-.81-2-.69.29-1.53.39-1.94,1.16h-.55l-2.91-2.7C190.2,201.84,189.58,201.7,190,201.29Z"/><path class="cls-9" d="M202.49,201.72l7.69-.43c.43.4-.19.55-.22.84l-2.9,2.7h-.2c-.6-.7-1.58-.65-2.28-1.14-.19-.14-.33.06-.38.21-.2.59-.74,1.06-.68,1.75-.51.43-.53-.19-.54-.34C202.87,204.1,202.36,203,202.49,201.72Z"/><path class="cls-10" d="M203.09,213.34l.06.82c-1.27,0-2.54,0-3.8,0a4.68,4.68,0,0,1-2.32-.23l.08-.6s.07,0,.07-.05a.84.84,0,0,0-.06-.14l.13-1.65a1.17,1.17,0,0,1,1.08-.43c1.16,0,2.33,0,3.5,0a1.6,1.6,0,0,1,1.09.46l.15,1.63s-.07,0-.07.06A.6.6,0,0,0,203.09,213.34Z"/><path class="cls-11" d="M192.51,213.73a.22.22,0,0,1-.14.09,37.31,37.31,0,0,1-3.8-5.66h3.67c.35,0,.8-.15.91.4C192.93,210.29,192.72,212,192.51,213.73Z"/><path class="cls-11" d="M207.82,213.82a.25.25,0,0,1-.14-.08l-.63-5.18c.11-.55.55-.39.9-.4h3.67A36.59,36.59,0,0,1,207.82,213.82Z"/><path class="cls-8" d="M207.05,208.56l.63,5.18-4.58-2.25A15.37,15.37,0,0,1,207.05,208.56Z"/><path class="cls-8" d="M192.51,213.73c.21-1.72.42-3.44.64-5.17a15.26,15.26,0,0,1,3.94,2.93Z"/><path class="cls-12" d="M190.23,202.13l2.91,2.7c-.49.78,0,1.67-.35,2.75C192.06,205.54,190.7,204.06,190.23,202.13Z"/><path class="cls-12" d="M207.06,204.83l2.9-2.7c0,.9-.66,1.49-1,2.22-.49,1-1,2-1.56,3.14C207.07,206.5,207.55,205.61,207.06,204.83Z"/><path class="cls-13" d="M197,213.94a4.68,4.68,0,0,0,2.32.23c1.26,0,2.53,0,3.8,0l.14.6c-.29-.08-.49-.35-.85-.33a48.92,48.92,0,0,0-5.55.14C196.9,214.35,196.78,214.11,197,213.94Z"/><path class="cls-13" d="M197.12,213.15a.84.84,0,0,1,.06.14s-.05,0-.07.05A.19.19,0,0,1,197.12,213.15Z"/><path class="cls-13" d="M203.09,213.34a.6.6,0,0,1-.09-.13s.05,0,.07-.06A.21.21,0,0,1,203.09,213.34Z"/><circle class="cls-1" cx="200.5" cy="200.14" r="194.32"/><path class="cls-14" d="M375.28,285.14a194.56,194.56,0,0,0-5.42-180.32"/><path class="cls-14" d="M31.14,104.82a194.56,194.56,0,0,0-5.42,180.32"/><rect class="cls-15" x="198.86" y="43.8" width="3.11" height="27.98"/><rect class="cls-15" x="183.91" y="49.25" width="3.11" height="18.65" transform="translate(-5.11 19.71) rotate(-6)"/><rect class="cls-15" x="169.12" y="51.59" width="3.11" height="18.65" transform="translate(-8.94 36.82) rotate(-12)"/><rect class="cls-15" x="154.66" y="55.46" width="3.11" height="18.65" transform="translate(-12.38 51.45) rotate(-18)"/><rect class="cls-15" x="140.69" y="60.83" width="3.11" height="18.65" transform="translate(-16.24 63.92) rotate(-24)"/><rect class="cls-15" x="127.35" y="67.63" width="3.11" height="18.65" transform="translate(-21.21 74.76) rotate(-30)"/><rect class="cls-15" x="114.8" y="75.78" width="3.11" height="18.65" transform="translate(-27.8 84.64) rotate(-36)"/><rect class="cls-15" x="103.16" y="85.2" width="3.11" height="18.65" transform="translate(-36.35 94.35) rotate(-42)"/><rect class="cls-15" x="92.58" y="95.78" width="3.11" height="18.65" transform="translate(-46.97 104.73) rotate(-48)"/><rect class="cls-15" x="83.16" y="107.42" width="3.11" height="18.65" transform="translate(-59.53 116.66) rotate(-54)"/><rect class="cls-15" x="75" y="119.97" width="3.11" height="18.65" transform="translate(-73.7 130.95) rotate(-60)"/><rect class="cls-15" x="68.21" y="133.31" width="3.11" height="18.65" transform="translate(-88.92 148.35) rotate(-66)"/><rect class="cls-15" x="62.84" y="147.29" width="3.11" height="18.65" transform="translate(-104.45 169.46) rotate(-72)"/><rect class="cls-15" x="58.97" y="161.75" width="3.11" height="18.65" transform="translate(-119.4 194.7) rotate(-78)"/><rect class="cls-15" x="56.62" y="176.53" width="3.11" height="18.65" transform="translate(-132.74 224.29) rotate(-84)"/><rect class="cls-15" x="55.84" y="186.82" width="3.11" height="27.98" transform="translate(-143.41 258.21) rotate(-90)"/><rect class="cls-15" x="56.62" y="206.43" width="3.11" height="18.65" transform="translate(-150.32 296.17) rotate(-96)"/><rect class="cls-15" x="58.97" y="221.22" width="3.11" height="18.65" transform="translate(-152.4 337.68) rotate(-102)"/><rect class="cls-15" x="62.84" y="235.68" width="3.11" height="18.65" transform="translate(-148.72 381.96) rotate(-108)"/><rect class="cls-15" x="68.21" y="249.65" width="3.11" height="18.65" transform="translate(-138.46 428.05) rotate(-114)"/><rect class="cls-15" x="75" y="262.99" width="3.11" height="18.65" transform="translate(-121 474.78) rotate(-120)"/><rect class="cls-15" x="83.16" y="275.55" width="3.11" height="18.65" transform="translate(-95.97 520.85) rotate(-126)"/><rect class="cls-15" x="92.58" y="287.18" width="3.11" height="18.65" transform="translate(-63.23 564.86) rotate(-132)"/><rect class="cls-15" x="103.16" y="297.77" width="3.11" height="18.65" transform="translate(-22.95 605.38) rotate(-138)"/><rect class="cls-15" x="114.8" y="307.19" width="3.11" height="18.65" transform="translate(24.44 640.97) rotate(-144)"/><rect class="cls-15" x="127.35" y="315.34" width="3.11" height="18.65" transform="translate(78.21 670.29) rotate(-150)"/><rect class="cls-15" x="140.69" y="322.14" width="3.11" height="18.65" transform="translate(137.37 692.13) rotate(-156)"/><rect class="cls-15" x="154.66" y="327.5" width="3.11" height="18.65" transform="translate(200.71 705.45) rotate(-162)"/><rect class="cls-15" x="169.12" y="331.38" width="3.11" height="18.65" transform="translate(266.79 709.45) rotate(-168)"/><rect class="cls-15" x="183.91" y="333.72" width="3.11" height="18.65" transform="translate(334.05 703.6) rotate(-174)"/><rect class="cls-15" x="198.86" y="329.84" width="3.11" height="27.98" transform="translate(400.83 687.66) rotate(-180)"/><rect class="cls-15" x="213.81" y="333.72" width="3.11" height="18.65" transform="translate(465.4 661.7) rotate(174)"/><rect class="cls-15" x="228.59" y="331.38" width="3.11" height="18.65" transform="translate(526.1 626.11) rotate(168)"/><rect class="cls-15" x="243.05" y="327.5" width="3.11" height="18.65" transform="translate(581.33 581.58) rotate(162)"/><rect class="cls-15" x="257.03" y="322.14" width="3.11" height="18.65" transform="translate(629.63 529.09) rotate(156)"/><rect class="cls-15" x="270.37" y="315.34" width="3.11" height="18.65" transform="translate(669.75 469.88) rotate(150)"/><rect class="cls-15" x="282.92" y="307.19" width="3.11" height="18.65" transform="translate(700.67 405.37) rotate(144)"/><rect class="cls-15" x="294.56" y="297.77" width="3.11" height="18.65" transform="translate(721.65 337.17) rotate(138)"/><rect class="cls-15" x="305.14" y="287.18" width="3.11" height="18.65" transform="translate(732.27 266.99) rotate(132)"/><rect class="cls-15" x="314.56" y="275.55" width="3.11" height="18.65" transform="translate(732.4 196.57) rotate(126)"/><rect class="cls-15" x="322.72" y="262.99" width="3.11" height="18.65" transform="matrix(-0.5, 0.87, -0.87, -0.5, 722.24, 127.65)"/><rect class="cls-15" x="329.51" y="249.65" width="3.11" height="18.65" transform="translate(702.32 61.87) rotate(114)"/><rect class="cls-15" x="334.88" y="235.68" width="3.11" height="18.65" transform="translate(673.41 0.75) rotate(108)"/><rect class="cls-15" x="338.75" y="221.22" width="3.11" height="18.65" transform="translate(636.57 -54.39) rotate(102)"/><rect class="cls-15" x="341.09" y="206.43" width="3.11" height="18.65" transform="translate(593.04 -102.46) rotate(96)"/><rect class="cls-15" x="341.88" y="186.82" width="3.11" height="27.98" transform="translate(544.24 -142.62) rotate(90)"/><rect class="cls-15" x="341.09" y="176.53" width="3.11" height="18.65" transform="translate(491.67 -174.34) rotate(84)"/><rect class="cls-15" x="338.75" y="161.75" width="3.11" height="18.65" transform="translate(436.89 -197.36) rotate(78)"/><rect class="cls-15" x="334.88" y="147.29" width="3.11" height="18.65" transform="translate(381.42 -211.75) rotate(72)"/><rect class="cls-15" x="329.51" y="133.31" width="3.11" height="18.65" transform="translate(326.72 -217.82) rotate(66)"/><rect class="cls-15" x="322.72" y="119.97" width="3.11" height="18.65" transform="translate(274.11 -216.18) rotate(60)"/><rect class="cls-15" x="314.56" y="107.42" width="3.11" height="18.65" transform="translate(224.76 -207.62) rotate(54)"/><rect class="cls-15" x="305.14" y="95.78" width="3.11" height="18.65" transform="translate(179.59 -193.14) rotate(48)"/><rect class="cls-15" x="294.56" y="85.2" width="3.11" height="18.65" transform="translate(139.31 -173.86) rotate(42)"/><rect class="cls-15" x="282.92" y="75.78" width="3.11" height="18.65" transform="translate(104.35 -150.96) rotate(36)"/><rect class="cls-15" x="270.37" y="67.63" width="3.11" height="18.65" transform="translate(74.91 -125.65) rotate(30)"/><rect class="cls-15" x="257.03" y="60.83" width="3.11" height="18.65" transform="translate(50.89 -99.11) rotate(24)"/><rect class="cls-15" x="243.05" y="55.46" width="3.11" height="18.65" transform="translate(31.99 -72.42) rotate(18)"/><rect class="cls-15" x="228.59" y="51.59" width="3.11" height="18.65" transform="translate(17.69 -46.52) rotate(12)"/><rect class="cls-15" x="213.81" y="49.25" width="3.11" height="18.65" transform="translate(7.3 -22.19) rotate(6)"/><rect class="cls-15" x="199.81" y="139.41" width="1.22" height="10.94"/><rect class="cls-15" x="193.96" y="141.54" width="1.22" height="7.3" transform="translate(-14.11 21.13) rotate(-6)"/><rect class="cls-15" x="188.18" y="142.45" width="1.22" height="7.3" transform="translate(-26.25 42.44) rotate(-12)"/><rect class="cls-15" x="182.52" y="143.97" width="1.22" height="7.3" transform="translate(-36.65 63.81) rotate(-18)"/><rect class="cls-15" x="177.06" y="146.07" width="1.22" height="7.3" transform="translate(-45.53 85.21) rotate(-24)"/><rect class="cls-15" x="171.84" y="148.72" width="1.22" height="7.3" transform="translate(-53.08 106.64) rotate(-30)"/><rect class="cls-15" x="166.93" y="151.91" width="1.22" height="7.3" transform="matrix(0.81, -0.59, 0.59, 0.81, -59.44, 128.19)"/><rect class="cls-15" x="162.38" y="155.6" width="1.22" height="7.3" transform="translate(-64.69 149.96) rotate(-42)"/><rect class="cls-15" x="158.24" y="159.74" width="1.22" height="7.3" transform="translate(-68.86 172.11) rotate(-48)"/><rect class="cls-15" x="154.56" y="164.29" width="1.22" height="7.3" transform="translate(-71.9 194.75) rotate(-54)"/><rect class="cls-15" x="151.37" y="169.2" width="1.22" height="7.3" transform="matrix(0.5, -0.87, 0.87, 0.5, -73.7, 218.04)"/><rect class="cls-15" x="148.71" y="174.41" width="1.22" height="7.3" transform="translate(-74.08 242.04) rotate(-66)"/><rect class="cls-15" x="146.61" y="179.88" width="1.22" height="7.3" transform="translate(-72.82 266.83) rotate(-72)"/><rect class="cls-15" x="145.1" y="185.53" width="1.22" height="7.3" transform="translate(-69.64 292.37) rotate(-78)"/><rect class="cls-15" x="144.18" y="191.32" width="1.22" height="7.3" transform="translate(-64.24 318.58) rotate(-84)"/><rect class="cls-15" x="143.87" y="195.34" width="1.22" height="10.94" transform="translate(-56.33 345.29) rotate(-90)"/><rect class="cls-15" x="144.18" y="203.01" width="1.22" height="7.3" transform="translate(-45.6 372.25) rotate(-96)"/><rect class="cls-15" x="145.1" y="208.79" width="1.22" height="7.3" transform="translate(-31.8 399.13) rotate(-102)"/><rect class="cls-15" x="146.61" y="214.45" width="1.22" height="7.3" transform="translate(-14.71 425.5) rotate(-108)"/><rect class="cls-15" x="148.71" y="219.91" width="1.22" height="7.3" transform="translate(5.82 450.9) rotate(-114)"/><rect class="cls-15" x="151.37" y="225.13" width="1.22" height="7.3" transform="translate(29.84 474.78) rotate(-120)"/><rect class="cls-15" x="154.56" y="230.04" width="1.22" height="7.3" transform="translate(57.31 496.57) rotate(-126)"/><rect class="cls-15" x="158.24" y="234.59" width="1.22" height="7.3" transform="translate(88.09 515.69) rotate(-132)"/><rect class="cls-15" x="162.38" y="238.73" width="1.22" height="7.3" transform="translate(121.93 531.56) rotate(-138)"/><rect class="cls-15" x="166.93" y="242.41" width="1.22" height="7.3" transform="translate(158.45 543.6) rotate(-144)"/><rect class="cls-15" x="171.84" y="245.6" width="1.22" height="7.3" transform="translate(197.17 551.33) rotate(-150)"/><rect class="cls-15" x="177.06" y="248.26" width="1.22" height="7.3" transform="translate(237.51 554.3) rotate(-156)"/><rect class="cls-15" x="182.52" y="250.36" width="1.22" height="7.3" transform="translate(278.8 552.17) rotate(-162)"/><rect class="cls-15" x="188.18" y="251.87" width="1.22" height="7.3" transform="translate(320.32 544.71) rotate(-168)"/><rect class="cls-15" x="193.96" y="252.79" width="1.22" height="7.3" transform="translate(361.26 531.81) rotate(-174)"/><rect class="cls-15" x="199.81" y="251.27" width="1.22" height="10.94" transform="translate(400.83 513.49) rotate(-180)"/><rect class="cls-15" x="205.65" y="252.79" width="1.22" height="7.3" transform="translate(438.2 489.91) rotate(174)"/><rect class="cls-15" x="211.43" y="251.87" width="1.22" height="7.3" transform="translate(472.58 461.37) rotate(168)"/><rect class="cls-15" x="217.09" y="250.36" width="1.22" height="7.3" transform="translate(503.23 428.31) rotate(162)"/><rect class="cls-15" x="222.56" y="248.26" width="1.22" height="7.3" transform="translate(529.49 391.27) rotate(156)"/><rect class="cls-15" x="227.77" y="245.6" width="1.22" height="7.3" transform="translate(550.79 350.92) rotate(150)"/><rect class="cls-15" x="232.68" y="242.41" width="1.22" height="7.3" transform="translate(566.66 308) rotate(144)"/><rect class="cls-15" x="237.23" y="238.73" width="1.22" height="7.3" transform="translate(576.77 263.35) rotate(138)"/><rect class="cls-15" x="241.37" y="234.59" width="1.22" height="7.3" transform="translate(580.94 217.82) rotate(132)"/><rect class="cls-15" x="245.06" y="230.04" width="1.22" height="7.3" transform="translate(579.12 172.3) rotate(126)"/><rect class="cls-15" x="248.25" y="225.13" width="1.22" height="7.3" transform="matrix(-0.5, 0.87, -0.87, -0.5, 571.41, 127.65)"/><rect class="cls-15" x="250.9" y="219.91" width="1.22" height="7.3" transform="translate(558.04 84.72) rotate(114)"/><rect class="cls-15" x="253" y="214.45" width="1.22" height="7.3" transform="matrix(-0.31, 0.95, -0.95, -0.31, 539.4, 44.29)"/><rect class="cls-15" x="254.52" y="208.79" width="1.22" height="7.3" transform="translate(515.96 7.06) rotate(102)"/><rect class="cls-15" x="255.43" y="203.01" width="1.22" height="7.3" transform="translate(488.33 -26.38) rotate(96)"/><rect class="cls-15" x="255.74" y="195.34" width="1.22" height="10.94" transform="translate(457.16 -55.54) rotate(90)"/><rect class="cls-15" x="255.43" y="191.32" width="1.22" height="7.3" transform="translate(423.17 -80.05) rotate(84)"/><rect class="cls-15" x="254.52" y="185.53" width="1.22" height="7.3" transform="translate(387.13 -99.7) rotate(78)"/><rect class="cls-15" x="253" y="179.88" width="1.22" height="7.3" transform="translate(349.78 -114.38) rotate(72)"/><rect class="cls-15" x="250.9" y="174.41" width="1.22" height="7.3" transform="translate(311.88 -124.13) rotate(66)"/><rect class="cls-15" x="248.25" y="169.2" width="1.22" height="7.3" transform="translate(274.11 -129.09) rotate(60)"/><rect class="cls-15" x="245.06" y="164.29" width="1.22" height="7.3" transform="translate(237.13 -129.52) rotate(54)"/><rect class="cls-15" x="241.37" y="159.74" width="1.22" height="7.3" transform="translate(201.48 -125.77) rotate(48)"/><rect class="cls-15" x="237.23" y="155.6" width="1.22" height="7.3" transform="translate(167.65 -118.24) rotate(42)"/><rect class="cls-15" x="232.68" y="151.91" width="1.22" height="7.3" transform="translate(135.99 -107.42) rotate(36)"/><rect class="cls-15" x="227.77" y="148.72" width="1.22" height="7.3" transform="translate(106.78 -93.78) rotate(30)"/><rect class="cls-15" x="222.56" y="146.07" width="1.22" height="7.3" transform="translate(80.19 -77.83) rotate(24)"/><rect class="cls-15" x="217.09" y="143.97" width="1.22" height="7.3" transform="translate(56.27 -60.05) rotate(18)"/><rect class="cls-15" x="211.43" y="142.45" width="1.22" height="7.3" transform="translate(35.01 -40.89) rotate(12)"/><rect class="cls-15" x="205.65" y="141.54" width="1.22" height="7.3" transform="matrix(0.99, 0.1, -0.1, 0.99, 16.31, -20.76)"/></svg>